<mxfile host="app.diagrams.net" agent="Mozilla/5.0 (Windows NT 10.0; Win64; x64) AppleWebKit/537.36 (KHTML, like Gecko) Chrome/141.0.0.0 Safari/537.36" version="28.2.8">
  <diagram name="성적 관리 시스템 백엔드 플로우" id="grade-system-flow">
    <mxGraphModel dx="1426" dy="777" grid="1" gridSize="10" guides="1" tooltips="1" connect="1" arrows="1" fold="1" page="1" pageScale="1" pageWidth="1920" pageHeight="1080" background="light-dark(#FFFFFF,#FFFFFF)" math="0" shadow="0">
      <root>
        <mxCell id="0" />
        <mxCell id="1" parent="0" />
        <mxCell id="title" value="성적 관리 시스템 백엔드 프로세스" style="text;html=1;strokeColor=none;fillColor=none;align=center;verticalAlign=middle;whiteSpace=wrap;rounded=0;fontSize=32;fontStyle=1;fontColor=light-dark(#000000,#000000);" parent="1" vertex="1">
          <mxGeometry x="440" y="20" width="680" height="60" as="geometry" />
        </mxCell>
        <mxCell id="legend" value="" style="rounded=1;whiteSpace=wrap;html=1;fillColor=#6a00ff;strokeColor=#3700CC;strokeWidth=2;verticalAlign=top;shadow=0;fontColor=#ffffff;fontSize=15;" parent="1" vertex="1">
          <mxGeometry x="90" y="375" width="290" height="240" as="geometry" />
        </mxCell>
        <mxCell id="legend-title" value="📋 범례" style="text;html=1;strokeColor=none;fillColor=none;align=center;verticalAlign=middle;whiteSpace=wrap;rounded=0;fontSize=15;fontStyle=1;fontColor=light-dark(#000000,#000000);" parent="1" vertex="1">
          <mxGeometry x="150" y="390" width="140" height="30" as="geometry" />
        </mxCell>
        <mxCell id="legend-student" value="학생 액션" style="rounded=1;whiteSpace=wrap;html=1;fillColor=#0050ef;strokeColor=#001DBC;strokeWidth=3;fontColor=#ffffff;fontSize=15;" parent="1" vertex="1">
          <mxGeometry x="110" y="435" width="120" height="30" as="geometry" />
        </mxCell>
        <mxCell id="legend-prof" value="교수 액션" style="rounded=1;whiteSpace=wrap;html=1;fillColor=#008a00;strokeColor=#005700;strokeWidth=3;fontColor=#ffffff;fontSize=15;" parent="1" vertex="1">
          <mxGeometry x="240" y="435" width="120" height="30" as="geometry" />
        </mxCell>
        <mxCell id="legend-event" value="🔔 GradeUpdateEvent 발생" style="text;html=1;strokeColor=none;fillColor=none;align=left;verticalAlign=middle;whiteSpace=wrap;rounded=0;fontSize=15;fontColor=light-dark(#000000,#000000);fontStyle=1;" parent="1" vertex="1">
          <mxGeometry x="110" y="493" width="210" height="30" as="geometry" />
        </mxCell>
        <mxCell id="legend-db" value="" style="shape=cylinder3;whiteSpace=wrap;html=1;boundedLbl=1;backgroundOutline=1;size=6;fillColor=#FFF3E0;strokeColor=#F57C00;strokeWidth=1.5;fontColor=#E65100;fontSize=15;fontStyle=1;" parent="1" vertex="1">
          <mxGeometry x="110" y="535" width="48" height="40" as="geometry" />
        </mxCell>
        <mxCell id="legend-db-text" value="MariaDB 저장" style="text;html=1;strokeColor=none;fillColor=none;align=left;verticalAlign=middle;whiteSpace=wrap;rounded=0;fontSize=15;fontColor=light-dark(#000000,#000000);" parent="1" vertex="1">
          <mxGeometry x="170" y="543" width="150" height="30" as="geometry" />
        </mxCell>
        <mxCell id="start" value="수강신청 완료" style="strokeWidth=3;html=1;shape=mxgraph.flowchart.terminator;whiteSpace=wrap;fillColor=#0050ef;strokeColor=#001DBC;fontColor=#ffffff;fontSize=18;fontStyle=1;" parent="1" vertex="1">
          <mxGeometry x="105" y="135" width="220" height="100" as="geometry" />
        </mxCell>
        <mxCell id="step1" value="① 성적 구성 설정 (교수)&#xa;POST /api/enrollments/grade-config&#xa;→ 전체 수강생 ENROLLMENT_DATA 초기화" style="rounded=1;whiteSpace=wrap;html=1;fillColor=#008a00;strokeColor=#005700;strokeWidth=3;fontColor=#ffffff;fontSize=16;fontStyle=1" parent="1" vertex="1">
          <mxGeometry x="350" y="110" width="340" height="150" as="geometry" />
        </mxCell>
        <mxCell id="step2" value="② 출석 관리&#xa;학생: POST /attendance/request&#xa;교수: POST /attendance/approve&#xa;🔔 GradeUpdateEvent" style="rounded=1;whiteSpace=wrap;html=1;fillColor=#E1F5FE;strokeColor=#0288D1;strokeWidth=3;fontColor=#01579B;fontSize=16;fontStyle=1" parent="1" vertex="1">
          <mxGeometry x="710" y="110" width="340" height="160" as="geometry" />
        </mxCell>
        <mxCell id="step3" value="③ 과제 관리&#xa;생성: POST /api/assignments&#xa;채점: PUT /api/assignments/{id}/grade&#xa;🔔 GradeUpdateEvent" style="rounded=1;whiteSpace=wrap;html=1;fillColor=#F3E5F5;strokeColor=#7B1FA2;strokeWidth=3;fontColor=#4A148C;fontSize=16;fontStyle=1" parent="1" vertex="1">
          <mxGeometry x="1070" y="110" width="340" height="160" as="geometry" />
        </mxCell>
        <mxCell id="step4" value="④ 성적 조회&#xa;학생: POST /enrollments/grade-info&#xa;교수: POST /enrollments/grade-list" style="rounded=1;whiteSpace=wrap;html=1;fillColor=#FFF9C4;strokeColor=#F57F17;strokeWidth=3;fontColor=#F57F17;fontSize=16;fontStyle=1" parent="1" vertex="1">
          <mxGeometry x="1070" y="445" width="340" height="150" as="geometry" />
        </mxCell>
        <mxCell id="step5" value="⑤ 최종 등급 배정 (교수)&#xa;POST /api/enrollments/grade-finalize&#xa;→ 상대평가 알고리즘 (A30/B40/C20/D10, 권외F)" style="rounded=1;whiteSpace=wrap;html=1;fillColor=#FFEBEE;strokeColor=#C62828;strokeWidth=3;fontColor=#B71C1C;fontSize=16;fontStyle=1" parent="1" vertex="1">
          <mxGeometry x="690" y="445" width="360" height="160" as="geometry" />
        </mxCell>
        <mxCell id="end" value="학기 종료" style="strokeWidth=2;html=1;shape=mxgraph.flowchart.terminator;whiteSpace=wrap;fillColor=#C8E6C9;strokeColor=#388E3C;fontColor=#1B5E20;fontSize=18;fontStyle=1;" parent="1" vertex="1">
          <mxGeometry x="420" y="475" width="220" height="100" as="geometry" />
        </mxCell>
        <mxCell id="arrow0" value="" style="endArrow=block;html=1;strokeWidth=3;strokeColor=#1976D2;strokeLinecap=round;" parent="1" source="start" target="step1" edge="1">
          <mxGeometry relative="1" as="geometry" />
        </mxCell>
        <mxCell id="arrow1" value="" style="endArrow=block;html=1;strokeWidth=3;strokeColor=#388E3C;strokeLinecap=round;" parent="1" source="step1" target="step2" edge="1">
          <mxGeometry relative="1" as="geometry" />
        </mxCell>
        <mxCell id="arrow2" value="" style="endArrow=block;html=1;strokeWidth=3;strokeColor=#0288D1;strokeLinecap=round;" parent="1" source="step2" target="step3" edge="1">
          <mxGeometry relative="1" as="geometry" />
        </mxCell>
        <mxCell id="arrow3" value="" style="endArrow=block;html=1;strokeWidth=3;strokeColor=#7B1FA2;strokeLinecap=round;edgeStyle=orthogonalEdgeStyle;" parent="1" source="step3" target="step4" edge="1">
          <mxGeometry relative="1" as="geometry">
            <Array as="points">
              <mxPoint x="1470" y="190" />
              <mxPoint x="1470" y="520" />
            </Array>
          </mxGeometry>
        </mxCell>
        <mxCell id="arrow4" value="" style="endArrow=block;html=1;strokeWidth=3;strokeColor=#F57F17;strokeLinecap=round;entryX=1;entryY=0.5;entryDx=0;entryDy=0;" parent="1" source="step4" target="step5" edge="1">
          <mxGeometry relative="1" as="geometry">
            <mxPoint x="1430" y="522.5675675675675" as="targetPoint" />
          </mxGeometry>
        </mxCell>
        <mxCell id="arrow5" value="" style="endArrow=block;html=1;strokeWidth=3;strokeColor=#C62828;strokeLinecap=round;exitX=0;exitY=0.5;exitDx=0;exitDy=0;" parent="1" source="step5" target="end" edge="1">
          <mxGeometry relative="1" as="geometry" />
        </mxCell>
        <mxCell id="db1" value="MariaDB" style="shape=cylinder3;whiteSpace=wrap;html=1;boundedLbl=1;backgroundOutline=1;size=10;fillColor=#FFF3E0;strokeColor=#F57C00;strokeWidth=2;fontColor=#E65100;fontSize=14;fontStyle=1;" parent="1" vertex="1">
          <mxGeometry x="465" y="312" width="110" height="78" as="geometry" />
        </mxCell>
        <mxCell id="db2" value="MariaDB" style="shape=cylinder3;whiteSpace=wrap;html=1;boundedLbl=1;backgroundOutline=1;size=10;fillColor=#FFF3E0;strokeColor=#F57C00;strokeWidth=2;fontColor=#E65100;fontSize=14;fontStyle=1;" parent="1" vertex="1">
          <mxGeometry x="825" y="312" width="110" height="78" as="geometry" />
        </mxCell>
        <mxCell id="db3" value="MariaDB" style="shape=cylinder3;whiteSpace=wrap;html=1;boundedLbl=1;backgroundOutline=1;size=10;fillColor=#FFF3E0;strokeColor=#F57C00;strokeWidth=2;fontColor=#E65100;fontSize=14;fontStyle=1;" parent="1" vertex="1">
          <mxGeometry x="1185" y="312" width="110" height="78" as="geometry" />
        </mxCell>
        <mxCell id="db4" value="MariaDB" style="shape=cylinder3;whiteSpace=wrap;html=1;boundedLbl=1;backgroundOutline=1;size=10;fillColor=#FFF3E0;strokeColor=#F57C00;strokeWidth=2;fontColor=#E65100;fontSize=14;fontStyle=1;" parent="1" vertex="1">
          <mxGeometry x="1190" y="645" width="110" height="78" as="geometry" />
        </mxCell>
        <mxCell id="db5" value="MariaDB" style="shape=cylinder3;whiteSpace=wrap;html=1;boundedLbl=1;backgroundOutline=1;size=10;fillColor=#FFF3E0;strokeColor=#F57C00;strokeWidth=2;fontColor=#E65100;fontSize=14;fontStyle=1;" parent="1" vertex="1">
          <mxGeometry x="815" y="645" width="110" height="78" as="geometry" />
        </mxCell>
        <mxCell id="db-arrow1" value="" style="endArrow=classic;html=1;strokeWidth=2;strokeColor=#F57C00;dashed=1;" parent="1" source="step1" target="db1" edge="1">
          <mxGeometry relative="1" as="geometry" />
        </mxCell>
        <mxCell id="db-arrow2" value="" style="endArrow=classic;html=1;strokeWidth=2;strokeColor=#F57C00;dashed=1;" parent="1" source="step2" target="db2" edge="1">
          <mxGeometry relative="1" as="geometry" />
        </mxCell>
        <mxCell id="db-arrow3" value="" style="endArrow=classic;html=1;strokeWidth=2;strokeColor=#F57C00;dashed=1;" parent="1" source="step3" target="db3" edge="1">
          <mxGeometry relative="1" as="geometry" />
        </mxCell>
        <mxCell id="db-arrow4" value="" style="endArrow=classic;html=1;strokeWidth=2;strokeColor=#F57C00;dashed=1;" parent="1" source="step4" target="db4" edge="1">
          <mxGeometry relative="1" as="geometry" />
        </mxCell>
        <mxCell id="db-arrow5" value="" style="endArrow=classic;html=1;strokeWidth=2;strokeColor=#F57C00;dashed=1;" parent="1" source="step5" target="db5" edge="1">
          <mxGeometry relative="1" as="geometry" />
        </mxCell>
      </root>
    </mxGraphModel>
  </diagram>
</mxfile>
